HIERARCHY
ROOT joint_Root
{
	OFFSET 0.0 0.0 0.0
	CHANNELS 6 Xposition Yposition Zposition Zrotation Xrotation Yrotation 
	JOINT Hips
	{
		OFFSET -0.726466 93.3139 -2.00062
		CHANNELS 6 Xposition Yposition Zposition Zrotation Xrotation Yrotation 
		JOINT Spine
		{
			OFFSET 15.7357 0.0 0.0
			CHANNELS 6 Xposition Yposition Zposition Zrotation Xrotation Yrotation 
			JOINT Chest
			{
				OFFSET 8.98455 -0.406207 0.0
				CHANNELS 6 Xposition Yposition Zposition Zrotation Xrotation Yrotation 
				JOINT Neck
				{
					OFFSET 16.3773 0.0 0.0
					CHANNELS 6 Xposition Yposition Zposition Zrotation Xrotation Yrotation 
					JOINT Head
					{
						OFFSET 6.45672 0.0 0.0
						CHANNELS 6 Xposition Yposition Zposition Zrotation Xrotation Yrotation 
						End Site
						{
							OFFSET 0.0 0.0 0.0
						}
					}
				}
				JOINT Shoulder_L
				{
					OFFSET 12.9942 -0.242716 4.98039
					CHANNELS 6 Xposition Yposition Zposition Zrotation Xrotation Yrotation 
					JOINT UpperArm_L
					{
						OFFSET 5.34809 0.0 0.0
						CHANNELS 6 Xposition Yposition Zposition Zrotation Xrotation Yrotation 
						JOINT LowerArm_L
						{
							OFFSET 24.3286 1.87007e-05 0.0
							CHANNELS 6 Xposition Yposition Zposition Zrotation Xrotation Yrotation 
							JOINT Hand_L
							{
								OFFSET 22.2916 0.0 0.0
								CHANNELS 6 Xposition Yposition Zposition Zrotation Xrotation Yrotation 
								End Site
								{
									OFFSET 0.0 0.0 0.0
								}
							}
						}
					}
				}
				JOINT Shoulder_R
				{
					OFFSET 12.9945 -0.242716 -4.98039
					CHANNELS 6 Xposition Yposition Zposition Zrotation Xrotation Yrotation 
					JOINT UpperArm_R
					{
						OFFSET -5.34813 0.0 0.0
						CHANNELS 6 Xposition Yposition Zposition Zrotation Xrotation Yrotation 
						JOINT LowerArm_R
						{
							OFFSET -24.3289 0.000322201 0.0
							CHANNELS 6 Xposition Yposition Zposition Zrotation Xrotation Yrotation 
							JOINT Hand_R
							{
								OFFSET -22.2915 -0.000108084 0.0
								CHANNELS 6 Xposition Yposition Zposition Zrotation Xrotation Yrotation 
								End Site
								{
									OFFSET 0.0 0.0 0.0
								}
							}
						}
					}
				}
			}
		}
		JOINT UpperLeg_L
		{
			OFFSET -2.19248 -6.46944 0.0
			CHANNELS 6 Xposition Yposition Zposition Zrotation Xrotation Yrotation 
			JOINT LowerLeg_L
			{
				OFFSET 39.0811 0.0 -1.23785e-05
				CHANNELS 6 Xposition Yposition Zposition Zrotation Xrotation Yrotation 
				JOINT Foot_L
				{
					OFFSET 40.9854 0.0 -1.26872e-05
					CHANNELS 6 Xposition Yposition Zposition Zrotation Xrotation Yrotation 
					JOINT Toes_L
					{
						OFFSET 11.7543 0.0 0.0
						CHANNELS 6 Xposition Yposition Zposition Zrotation Xrotation Yrotation 
						End Site
						{
							OFFSET 0.0 0.0 0.0
						}
					}
				}
			}
		}
		JOINT UpperLeg_R
		{
			OFFSET -2.19251 6.46944 0.0
			CHANNELS 6 Xposition Yposition Zposition Zrotation Xrotation Yrotation 
			JOINT LowerLeg_R
			{
				OFFSET -39.0811 -0.00228153 -0.0401928
				CHANNELS 6 Xposition Yposition Zposition Zrotation Xrotation Yrotation 
				JOINT Foot_R
				{
					OFFSET -40.9854 0.0 0.0
					CHANNELS 6 Xposition Yposition Zposition Zrotation Xrotation Yrotation 
					JOINT Toes_R
					{
						OFFSET -11.7543 0.0 0.0
						CHANNELS 6 Xposition Yposition Zposition Zrotation Xrotation Yrotation 
						End Site
						{
							OFFSET 0.0 0.0 0.0
						}
					}
				}
			}
		}
	}
}
MOTION
Frames:	4
Frame Time:	0.0333333
0.000000 0.000000 0.000000 0.000000 0.000000 -0.000000 0.463727 92.858300 -0.913065 88.278600 -9.327570 3.073080 15.735700 0.000005 -0.000001 100.639000 86.730000 -101.026000 8.984550 -0.406207 -0.000000 -1.334130 1.237860 -0.759043 16.377300 -0.000001 -0.000001 4.577570 -1.814980 4.800740 6.456720 -0.000001 -0.000000 9.174330 -0.935218 -4.405290 12.994200 -0.242716 4.980390 -90.415200 1.260190 -71.761300 5.348090 -0.000007 -0.000001 -69.003300 38.193000 -9.671060 24.328600 0.000019 0.000005 3.392540 8.742150 -21.307200 22.291600 -0.000001 0.000005 3.878220 5.487320 -6.031220 12.994500 -0.242716 -4.980390 88.667100 4.204920 -72.393800 -5.348130 -0.000001 -0.000004 -71.155800 -17.123900 -77.382500 -24.328900 0.000322 -0.000009 16.929700 -2.791980 -99.092200 -22.291500 -0.000108 -0.000004 19.765800 5.237740 1.754390 -2.192480 -6.469440 -0.000000 -176.095000 -11.380400 -0.601445 39.081100 -0.000007 -0.000012 -0.073044 0.222722 18.157400 40.985400 -0.000006 -0.000013 -0.717989 -0.387256 -64.237600 11.754300 -0.000000 0.000003 -0.000000 -0.000000 -16.577500 -2.192510 6.469440 -0.000001 178.693000 6.729010 -179.023000 -39.081100 -0.002282 -0.040193 -0.036664 0.156304 14.353100 -40.985400 0.000008 0.000006 1.130990 10.096200 -62.539400 -11.754300 -0.000006 -0.000006 -0.003485 -0.045971 -18.442900
0.000000 0.000000 0.000000 0.000000 0.000000 -0.000000 0.515588 92.867900 -0.928044 88.275500 -9.197430 3.061710 15.735700 0.000005 -0.000001 100.259000 86.699100 -100.625000 8.984550 -0.406207 -0.000000 -1.265860 1.204330 -0.717451 16.377300 -0.000001 -0.000001 4.545380 -1.881370 4.854080 6.456720 -0.000001 -0.000000 9.028340 -0.925668 -4.355160 12.994200 -0.242716 4.980390 -90.426200 1.291490 -71.737100 5.348090 -0.000007 -0.000001 -68.939100 38.171600 -9.626600 24.328600 0.000019 0.000005 3.419070 8.846820 -21.229700 22.291600 -0.000001 0.000005 3.931200 5.486980 -6.017860 12.994500 -0.242716 -4.980390 88.657800 4.201400 -72.265400 -5.348130 -0.000001 -0.000004 -70.344400 -17.189300 -76.399600 -24.328900 0.000322 -0.000009 16.203500 -2.826530 -99.631800 -22.291500 -0.000108 -0.000004 19.960700 5.234400 1.841440 -2.192480 -6.469440 -0.000000 -176.158000 -11.125200 -0.627199 39.081100 -0.000007 -0.000012 -0.073273 0.224080 18.107300 40.985400 -0.000006 -0.000013 -0.707639 -0.539215 -64.194000 11.754300 -0.000000 0.000003 -0.000000 -0.000004 -16.577600 -2.192510 6.469440 -0.000001 178.683000 6.785420 -179.004000 -39.081100 -0.002282 -0.040193 -0.033957 0.146417 14.287800 -40.985400 0.000008 0.000006 1.235050 10.019000 -62.525900 -11.754300 -0.000006 -0.000006 -0.003416 -0.045226 -18.412500
0.000000 0.000000 0.000000 0.000000 0.000000 -0.000000 0.536725 92.873800 -0.953667 88.283200 -9.068110 2.956020 15.735700 0.000005 -0.000001 100.017000 86.690700 -100.361000 8.984550 -0.406207 -0.000000 -1.244720 1.178010 -0.675175 16.377300 -0.000001 -0.000001 4.419660 -1.881270 4.861910 6.456720 -0.000001 -0.000000 8.812340 -0.838260 -4.258530 12.994200 -0.242716 4.980390 -90.444000 1.346420 -71.746800 5.348090 -0.000007 -0.000001 -68.878100 38.133400 -9.604080 24.328600 0.000019 0.000005 3.366550 8.757000 -21.125600 22.291600 -0.000001 0.000005 4.040360 5.488350 -6.071160 12.994500 -0.242716 -4.980390 88.623200 4.299060 -72.223400 -5.348130 -0.000001 -0.000004 -68.794200 -17.297500 -74.540100 -24.328900 0.000322 -0.000009 15.430400 -2.979110 -100.664000 -22.291500 -0.000108 -0.000004 19.839600 5.234950 1.826920 -2.192480 -6.469440 -0.000000 -176.201000 -11.125800 -0.773292 39.081100 -0.000007 -0.000012 -0.072605 0.222217 18.093700 40.985400 -0.000006 -0.000013 -0.665975 -0.426204 -64.151400 11.754300 -0.000000 0.000003 -0.000000 -0.000007 -16.577700 -2.192510 6.469440 -0.000001 178.682000 6.821480 -179.101000 -39.081100 -0.002282 -0.040193 -0.033639 0.145647 14.242700 -40.985400 0.000008 0.000006 1.205590 9.935760 -62.486400 -11.754300 -0.000006 -0.000006 -0.003449 -0.045579 -18.426900
0.000000 0.000000 0.000000 0.000000 0.000000 -0.000000 0.557880 92.879000 -0.962606 88.305200 -8.868230 2.923340 15.735700 0.000005 -0.000001 99.387000 86.653000 -99.727100 8.984550 -0.406207 -0.000000 -1.158250 1.118060 -0.668740 16.377300 -0.000001 -0.000001 4.192390 -1.837920 4.866450 6.456720 -0.000001 -0.000000 8.535880 -0.668084 -4.063530 12.994200 -0.242716 4.980390 -90.456700 1.385500 -71.755500 5.348090 -0.000007 -0.000001 -68.823200 38.068000 -9.582520 24.328600 0.000019 0.000005 3.366550 8.759890 -21.119300 22.291600 -0.000001 0.000005 4.064460 5.489160 -6.102780 12.994500 -0.242716 -4.980390 88.550200 4.539350 -72.266100 -5.348130 -0.000001 -0.000004 -66.353700 -17.306300 -71.492800 -24.328900 0.000322 -0.000009 14.695000 -3.252820 -102.209000 -22.291500 -0.000108 -0.000004 19.384300 5.231190 1.924660 -2.192480 -6.469440 -0.000000 -176.230000 -11.178100 -0.817247 39.081100 -0.000007 -0.000012 -0.071448 0.219215 18.052100 40.985400 -0.000006 -0.000013 -0.608003 -0.196398 -64.110200 11.754300 -0.000000 0.000003 -0.000000 -0.000000 -16.577500 -2.192510 6.469440 -0.000001 178.661000 6.930170 -179.119000 -39.081100 -0.002282 -0.040193 -0.033039 0.143447 14.227200 -40.985400 0.000008 0.000006 1.261340 9.829540 -62.497400 -11.754300 -0.000006 -0.000006 -0.003715 -0.048439 -18.543400
